<svg xmlns="http://www.w3.org/2000/svg" role="img" aria-label="文章示意图：05-应用层：DNS与基础协议" viewBox="0 0 790 250" width="790" height="250">
  <style>.node{fill:#fff;stroke:#9aabc0;stroke-width:1.2}.edge{fill:none;stroke:#52657d;stroke-width:2.1;stroke-linecap:round;stroke-linejoin:round}.label{font:14px ui-monospace,"Cascadia Mono","Microsoft YaHei",monospace;fill:#203149}</style>
  <rect x="0.5" y="0.5" width="789" height="249" rx="12" fill="#f6f8fb" stroke="#d5deea"/>
<path class="edge" d="M 25.0 65.0 h 5.0 M 30.0 50.0 v 15.0 M 30.0 65.0 v 15.0"/>
<path class="edge" d="M 40 65.0 h 5.0 M 45.0 65.0 h 5.0"/>
<path class="edge" d="M 60 65.0 h 5.0 M 65.0 65.0 h 5.0"/>
<path class="edge" d="M 30.0 80.0 v 15.0 M 30.0 95.0 v 15.0"/>
<path class="edge" d="M 75.0 95.0 h 5.0 M 80.0 80.0 v 15.0"/>
<path class="edge" d="M 90 95.0 h 5.0 M 95.0 95.0 h 5.0"/>
<path class="edge" d="M 110 95.0 h 5.0 M 115.0 95.0 h 5.0"/>
<path class="edge" d="M 30.0 110.0 v 15.0 M 30.0 125.0 v 15.0"/>
<path class="edge" d="M 115.0 125.0 h 5.0 M 120.0 110.0 v 15.0 M 120.0 125.0 v 15.0"/>
<path class="edge" d="M 130 125.0 h 5.0 M 135.0 125.0 h 5.0"/>
<path class="edge" d="M 150 125.0 h 5.0 M 155.0 125.0 h 5.0"/>
<path class="edge" d="M 30.0 140.0 v 15.0 M 30.0 155.0 v 15.0"/>
<path class="edge" d="M 115.0 155.0 h 5.0 M 120.0 140.0 v 15.0"/>
<path class="edge" d="M 130 155.0 h 5.0 M 135.0 155.0 h 5.0"/>
<path class="edge" d="M 150 155.0 h 5.0 M 155.0 155.0 h 5.0"/>
<path class="edge" d="M 25.0 185.0 h 5.0 M 30.0 170.0 v 15.0"/>
<path class="edge" d="M 40 185.0 h 5.0 M 45.0 185.0 h 5.0"/>
<path class="edge" d="M 60 185.0 h 5.0 M 65.0 185.0 h 5.0"/>
<path class="edge" d="M 65.0 215.0 h 5.0 M 70.0 200.0 v 15.0"/>
<path class="edge" d="M 80 215.0 h 5.0 M 85.0 215.0 h 5.0"/>
<path class="edge" d="M 100 215.0 h 5.0 M 105.0 215.0 h 5.0"/>
<rect class="node" x="16" y="23" width="18" height="24" rx="5"/>
<text class="label" x="20" y="45" textLength="10" lengthAdjust="spacingAndGlyphs">.</text>
<rect class="node" x="246" y="23" width="128" height="24" rx="5"/>
<text class="label" x="250" y="45" textLength="120" lengthAdjust="spacingAndGlyphs">根（root，13</text>
<rect class="node" x="376" y="23" width="388" height="24" rx="5"/>
<text class="label" x="380" y="45" textLength="380" lengthAdjust="spacingAndGlyphs">个根服务器标识，通过任播部署大量实例）</text>
<rect class="node" x="86" y="53" width="48" height="24" rx="5"/>
<text class="label" x="90" y="75" textLength="40" lengthAdjust="spacingAndGlyphs">com.</text>
<rect class="node" x="276" y="53" width="138" height="24" rx="5"/>
<text class="label" x="280" y="75" textLength="130" lengthAdjust="spacingAndGlyphs">顶级域（TLD）</text>
<rect class="node" x="136" y="83" width="128" height="24" rx="5"/>
<text class="label" x="140" y="105" textLength="120" lengthAdjust="spacingAndGlyphs">example.com.</text>
<rect class="node" x="286" y="83" width="388" height="24" rx="5"/>
<text class="label" x="290" y="105" textLength="380" lengthAdjust="spacingAndGlyphs">二级域，通常是一个“区”（zone）的起点</text>
<rect class="node" x="176" y="113" width="168" height="24" rx="5"/>
<text class="label" x="180" y="135" textLength="160" lengthAdjust="spacingAndGlyphs">www.example.com.</text>
<rect class="node" x="176" y="143" width="168" height="24" rx="5"/>
<text class="label" x="180" y="165" textLength="160" lengthAdjust="spacingAndGlyphs">api.example.com.</text>
<rect class="node" x="86" y="173" width="38" height="24" rx="5"/>
<text class="label" x="90" y="195" textLength="30" lengthAdjust="spacingAndGlyphs">cn.</text>
<rect class="node" x="126" y="203" width="118" height="24" rx="5"/>
<text class="label" x="130" y="225" textLength="110" lengthAdjust="spacingAndGlyphs">example.cn.</text>
</svg>