<svg xmlns="http://www.w3.org/2000/svg" role="img" aria-label="文章示意图：05-应用层：DNS与基础协议" viewBox="0 0 870 340" width="870" height="340">
  <style>.node{fill:#fff;stroke:#9aabc0;stroke-width:1.2}.edge{fill:none;stroke:#52657d;stroke-width:2.1;stroke-linecap:round;stroke-linejoin:round}.label{font:14px ui-monospace,"Cascadia Mono","Microsoft YaHei",monospace;fill:#203149}</style>
  <rect x="0.5" y="0.5" width="869" height="339" rx="12" fill="#f6f8fb" stroke="#d5deea"/>
<path class="edge" d="M 130 35.0 h 5.0 M 135.0 35.0 h 5.0"/>
<path class="edge" d="M 150 35.0 h 5.0 M 155.0 35.0 h 5.0"/>
<path class="edge" d="M 210 35.0 h 5.0 M 215.0 35.0 h 5.0"/>
<path class="edge" d="M 230 35.0 h 5.0 M 235.0 35.0 h 5.0"/>
<path class="edge" d="M 250 35.0 H 266"/>
<path class="edge" d="M 265.8,30.8 L 274.2,35.0 L 265.8,39.2 Z"/>
<path class="edge" d="M 260.0 50.0 v 15.0 M 260.0 65.0 v 15.0"/>
<path class="edge" d="M 255.0 95.0 h 5.0 M 260.0 80.0 v 15.0 M 260.0 95.0 v 15.0"/>
<path class="edge" d="M 270 95.0 h 5.0 M 275.0 95.0 h 5.0"/>
<path class="edge" d="M 290 95.0 H 306"/>
<path class="edge" d="M 305.8,90.8 L 314.2,95.0 L 305.8,99.2 Z"/>
<path class="edge" d="M 260.0 110.0 v 15.0 M 260.0 125.0 v 15.0"/>
<path class="edge" d="M 320 125.0 H 304"/>
<path class="edge" d="M 304.2,120.8 L 295.8,125.0 L 304.2,129.2 Z"/>
<path class="edge" d="M 320 125.0 h 5.0 M 325.0 125.0 h 5.0"/>
<path class="edge" d="M 260.0 140.0 v 15.0 M 260.0 155.0 v 15.0"/>
<path class="edge" d="M 255.0 185.0 h 5.0 M 260.0 170.0 v 15.0 M 260.0 185.0 v 15.0"/>
<path class="edge" d="M 270 185.0 h 5.0 M 275.0 185.0 h 5.0"/>
<path class="edge" d="M 290 185.0 H 306"/>
<path class="edge" d="M 305.8,180.8 L 314.2,185.0 L 305.8,189.2 Z"/>
<path class="edge" d="M 260.0 200.0 v 15.0 M 260.0 215.0 v 15.0"/>
<path class="edge" d="M 320 215.0 H 304"/>
<path class="edge" d="M 304.2,210.8 L 295.8,215.0 L 304.2,219.2 Z"/>
<path class="edge" d="M 320 215.0 h 5.0 M 325.0 215.0 h 5.0"/>
<path class="edge" d="M 260.0 230.0 v 15.0 M 260.0 245.0 v 15.0"/>
<path class="edge" d="M 255.0 275.0 h 5.0 M 260.0 260.0 v 15.0"/>
<path class="edge" d="M 270 275.0 h 5.0 M 275.0 275.0 h 5.0"/>
<path class="edge" d="M 290 275.0 H 306"/>
<path class="edge" d="M 305.8,270.8 L 314.2,275.0 L 305.8,279.2 Z"/>
<path class="edge" d="M 310 305.0 H 294"/>
<path class="edge" d="M 294.2,300.8 L 285.8,305.0 L 294.2,309.2 Z"/>
<path class="edge" d="M 310 305.0 h 5.0 M 315.0 305.0 h 5.0"/>
<rect class="node" x="16" y="23" width="108" height="24" rx="5"/>
<text class="label" x="20" y="45" textLength="100" lengthAdjust="spacingAndGlyphs">存根解析器</text>
<rect class="node" x="166" y="23" width="48" height="24" rx="5"/>
<text class="label" x="170" y="45" textLength="40" lengthAdjust="spacingAndGlyphs">RD=1</text>
<rect class="node" x="276" y="23" width="268" height="24" rx="5"/>
<text class="label" x="280" y="45" textLength="260" lengthAdjust="spacingAndGlyphs">递归解析器（若缓存未命中）</text>
<rect class="node" x="316" y="83" width="258" height="24" rx="5"/>
<text class="label" x="320" y="105" textLength="250" lengthAdjust="spacingAndGlyphs">根服务器：api.example.com</text>
<rect class="node" x="576" y="83" width="28" height="24" rx="5"/>
<text class="label" x="580" y="105" textLength="20" lengthAdjust="spacingAndGlyphs">的</text>
<rect class="node" x="606" y="83" width="18" height="24" rx="5"/>
<text class="label" x="610" y="105" textLength="10" lengthAdjust="spacingAndGlyphs">A</text>
<rect class="node" x="626" y="83" width="68" height="24" rx="5"/>
<text class="label" x="630" y="105" textLength="60" lengthAdjust="spacingAndGlyphs">记录？</text>
<rect class="node" x="346" y="113" width="88" height="24" rx="5"/>
<text class="label" x="350" y="135" textLength="80" lengthAdjust="spacingAndGlyphs">无，去问</text>
<rect class="node" x="436" y="113" width="48" height="24" rx="5"/>
<text class="label" x="440" y="135" textLength="40" lengthAdjust="spacingAndGlyphs">com.</text>
<rect class="node" x="486" y="113" width="128" height="24" rx="5"/>
<text class="label" x="490" y="135" textLength="120" lengthAdjust="spacingAndGlyphs">的服务器（NS</text>
<rect class="node" x="616" y="113" width="18" height="24" rx="5"/>
<text class="label" x="620" y="135" textLength="10" lengthAdjust="spacingAndGlyphs">+</text>
<rect class="node" x="636" y="113" width="68" height="24" rx="5"/>
<text class="label" x="640" y="135" textLength="60" lengthAdjust="spacingAndGlyphs">地址）</text>
<rect class="node" x="316" y="173" width="48" height="24" rx="5"/>
<text class="label" x="320" y="195" textLength="40" lengthAdjust="spacingAndGlyphs">com.</text>
<rect class="node" x="366" y="173" width="238" height="24" rx="5"/>
<text class="label" x="370" y="195" textLength="230" lengthAdjust="spacingAndGlyphs">服务器：api.example.com</text>
<rect class="node" x="606" y="173" width="28" height="24" rx="5"/>
<text class="label" x="610" y="195" textLength="20" lengthAdjust="spacingAndGlyphs">的</text>
<rect class="node" x="636" y="173" width="18" height="24" rx="5"/>
<text class="label" x="640" y="195" textLength="10" lengthAdjust="spacingAndGlyphs">A</text>
<rect class="node" x="656" y="173" width="68" height="24" rx="5"/>
<text class="label" x="660" y="195" textLength="60" lengthAdjust="spacingAndGlyphs">记录？</text>
<rect class="node" x="346" y="203" width="88" height="24" rx="5"/>
<text class="label" x="350" y="225" textLength="80" lengthAdjust="spacingAndGlyphs">无，去问</text>
<rect class="node" x="436" y="203" width="128" height="24" rx="5"/>
<text class="label" x="440" y="225" textLength="120" lengthAdjust="spacingAndGlyphs">example.com.</text>
<rect class="node" x="566" y="203" width="128" height="24" rx="5"/>
<text class="label" x="570" y="225" textLength="120" lengthAdjust="spacingAndGlyphs">的权威服务器</text>
<rect class="node" x="316" y="263" width="128" height="24" rx="5"/>
<text class="label" x="320" y="285" textLength="120" lengthAdjust="spacingAndGlyphs">example.com.</text>
<rect class="node" x="446" y="263" width="278" height="24" rx="5"/>
<text class="label" x="450" y="285" textLength="270" lengthAdjust="spacingAndGlyphs">权威服务器：api.example.com</text>
<rect class="node" x="726" y="263" width="28" height="24" rx="5"/>
<text class="label" x="730" y="285" textLength="20" lengthAdjust="spacingAndGlyphs">的</text>
<rect class="node" x="756" y="263" width="18" height="24" rx="5"/>
<text class="label" x="760" y="285" textLength="10" lengthAdjust="spacingAndGlyphs">A</text>
<rect class="node" x="776" y="263" width="68" height="24" rx="5"/>
<text class="label" x="780" y="285" textLength="60" lengthAdjust="spacingAndGlyphs">记录？</text>
<rect class="node" x="336" y="293" width="58" height="24" rx="5"/>
<text class="label" x="340" y="315" textLength="50" lengthAdjust="spacingAndGlyphs">有，A</text>
<rect class="node" x="396" y="293" width="18" height="24" rx="5"/>
<text class="label" x="400" y="315" textLength="10" lengthAdjust="spacingAndGlyphs">=</text>
<rect class="node" x="416" y="293" width="188" height="24" rx="5"/>
<text class="label" x="420" y="315" textLength="180" lengthAdjust="spacingAndGlyphs">192.0.2.10（AA=1）</text>
</svg>