<svg xmlns="http://www.w3.org/2000/svg" width="1180" height="650" viewBox="0 0 1180 650" role="img">
<defs><marker id="arrow" viewBox="0 0 10 10" refX="8" refY="5" markerWidth="3.5" markerHeight="3.5" orient="auto"><path d="M0 0L10 5L0 10z" fill="#475569"/></marker></defs>
<rect width="100%" height="100%" rx="22" fill="#fff" stroke="#cbd5e1" stroke-width="2"/>
<text x="590" y="48" text-anchor="middle" font-size="27" font-weight="700" fill="#0f172a">桥接：抽象侧与实现侧独立扩展</text>
<path d="M284.0 260 L398.0 260" fill="none" stroke="#475569" stroke-width="2" marker-end="url(#arrow)"/>
<text x="341.0" y="247.0" text-anchor="middle" font-size="14" fill="#475569">持有</text>
<path d="M500 225.0 L500 212.0 L850 212.0 L850 199.0" fill="none" stroke="#475569" stroke-width="2" marker-end="url(#arrow)"/>
<text x="675.0" y="203.0" text-anchor="middle" font-size="14" fill="#475569">implements</text>
<path d="M604.0 260 L748.0 260" fill="none" stroke="#475569" stroke-width="2" marker-end="url(#arrow)"/>
<text x="676.0" y="247.0" text-anchor="middle" font-size="14" fill="#475569">implements</text>
<path d="M500 295.0 L500 308.0 L850 308.0 L850 321.0" fill="none" stroke="#475569" stroke-width="2" marker-end="url(#arrow)"/>
<text x="675.0" y="299.0" text-anchor="middle" font-size="14" fill="#475569">implements</text>
<path d="M180 400.0 L180 352.0 L180 352.0 L180 304.0" fill="none" stroke="#475569" stroke-width="2" marker-end="url(#arrow)"/>
<text x="180.0" y="343.0" text-anchor="middle" font-size="14" fill="#475569">继承</text>
<path d="M450 400.0 L450 352.0 L180 352.0 L180 304.0" fill="none" stroke="#475569" stroke-width="2" marker-end="url(#arrow)"/>
<text x="315.0" y="343.0" text-anchor="middle" font-size="14" fill="#475569">继承</text>
<rect x="70.0" y="220.0" width="220" height="80" rx="15" fill="#eff6ff" stroke="#3b82f6" stroke-width="2"/>
<text x="180" y="253" text-anchor="middle" font-size="17" font-weight="650" fill="#1e293b">RemoteControl</text>
<text x="180" y="279" text-anchor="middle" font-size="17" font-weight="650" fill="#1e293b">抽象侧</text>
<rect x="390.0" y="220.0" width="220" height="80" rx="15" fill="#eff6ff" stroke="#3b82f6" stroke-width="2"/>
<text x="500" y="253" text-anchor="middle" font-size="17" font-weight="650" fill="#1e293b">Device</text>
<text x="500" y="279" text-anchor="middle" font-size="17" font-weight="650" fill="#1e293b">实现侧协议</text>
<rect x="740.0" y="125.0" width="220" height="70" rx="15" fill="#eff6ff" stroke="#3b82f6" stroke-width="2"/>
<text x="850" y="166" text-anchor="middle" font-size="17" font-weight="650" fill="#1e293b">SonyTv</text>
<rect x="740.0" y="225.0" width="220" height="70" rx="15" fill="#eff6ff" stroke="#3b82f6" stroke-width="2"/>
<text x="850" y="266" text-anchor="middle" font-size="17" font-weight="650" fill="#1e293b">RcaTv</text>
<rect x="740.0" y="325.0" width="220" height="70" rx="15" fill="#eff6ff" stroke="#3b82f6" stroke-width="2"/>
<text x="850" y="366" text-anchor="middle" font-size="17" font-weight="650" fill="#1e293b">LgTv</text>
<rect x="70.0" y="395.0" width="220" height="70" rx="15" fill="#eff6ff" stroke="#3b82f6" stroke-width="2"/>
<text x="180" y="436" text-anchor="middle" font-size="17" font-weight="650" fill="#1e293b">BasicRemote</text>
<rect x="340.0" y="395.0" width="220" height="70" rx="15" fill="#eff6ff" stroke="#3b82f6" stroke-width="2"/>
<text x="450" y="436" text-anchor="middle" font-size="17" font-weight="650" fill="#1e293b">RecordingRemote</text>
</svg>
