<svg xmlns="http://www.w3.org/2000/svg" width="1180" height="650" viewBox="0 0 1180 650" role="img">
<defs><marker id="arrow" viewBox="0 0 10 10" refX="8" refY="5" markerWidth="7" markerHeight="7" orient="auto"><path d="M0 0L10 5L0 10z" fill="#475569"/></marker></defs>
<rect width="100%" height="100%" rx="22" fill="#fff" stroke="#cbd5e1" stroke-width="2"/>
<text x="590" y="48" text-anchor="middle" font-size="27" font-weight="700" fill="#0f172a">责任链：请求沿链传递直到被处理</text>
<path d="M224.0 260 L258.0 260" fill="none" stroke="#475569" stroke-width="2" marker-end="url(#arrow)"/>
<text x="241.0" y="247.0" text-anchor="middle" font-size="14" fill="#475569">handle(request)</text>
<path d="M464.0 260 L518.0 260" fill="none" stroke="#475569" stroke-width="2" marker-end="url(#arrow)"/>
<text x="491.0" y="247.0" text-anchor="middle" font-size="14" fill="#475569">不能处理：next</text>
<path d="M724.0 260 L778.0 260" fill="none" stroke="#475569" stroke-width="2" marker-end="url(#arrow)"/>
<text x="751.0" y="247.0" text-anchor="middle" font-size="14" fill="#475569">不能处理：next</text>
<path d="M984.0 260 L958.0 260" fill="none" stroke="#475569" stroke-width="2" marker-end="url(#arrow)"/>
<text x="971.0" y="247.0" text-anchor="middle" font-size="14" fill="#475569">不能处理</text>



<rect x="10.0" y="225.0" width="220" height="70" rx="15" fill="#eff6ff" stroke="#3b82f6" stroke-width="2"/>
<text x="120" y="266" text-anchor="middle" font-size="17" font-weight="650" fill="#1e293b">Client</text>
<rect x="250.0" y="225.0" width="220" height="70" rx="15" fill="#eff6ff" stroke="#3b82f6" stroke-width="2"/>
<text x="360" y="266" text-anchor="middle" font-size="17" font-weight="650" fill="#1e293b">Handler A</text>
<rect x="510.0" y="225.0" width="220" height="70" rx="15" fill="#eff6ff" stroke="#3b82f6" stroke-width="2"/>
<text x="620" y="266" text-anchor="middle" font-size="17" font-weight="650" fill="#1e293b">Handler B</text>
<rect x="770.0" y="225.0" width="220" height="70" rx="15" fill="#eff6ff" stroke="#3b82f6" stroke-width="2"/>
<text x="880" y="266" text-anchor="middle" font-size="17" font-weight="650" fill="#1e293b">Handler C</text>
<rect x="950.0" y="225.0" width="220" height="70" rx="15" fill="#eff6ff" stroke="#3b82f6" stroke-width="2"/>
<text x="1060" y="266" text-anchor="middle" font-size="17" font-weight="650" fill="#1e293b">null</text>
<text x="590" y="430" text-anchor="middle" font-size="17" fill="#334155">每个 Handler：能处理则返回结果；否则交给 next</text></svg>
