<svg xmlns="http://www.w3.org/2000/svg" width="1180" height="650" viewBox="0 0 1180 650" role="img">
<defs><marker id="arrow" viewBox="0 0 10 10" refX="8" refY="5" markerWidth="3.5" markerHeight="3.5" orient="auto"><path d="M0 0L10 5L0 10z" fill="#475569"/></marker></defs>
<rect width="100%" height="100%" rx="22" fill="#fff" stroke="#cbd5e1" stroke-width="2"/>
<text x="590" y="48" text-anchor="middle" font-size="27" font-weight="700" fill="#0f172a">策略：Context 只依赖可替换的策略协议</text>
<path d="M254.0 250 L348.0 250" fill="none" stroke="#475569" stroke-width="2" marker-end="url(#arrow)"/>
<text x="301.0" y="237.0" text-anchor="middle" font-size="14" fill="#475569">注入 / 替换</text>
<path d="M554.0 250 L628.0 250" fill="none" stroke="#475569" stroke-width="2" marker-end="url(#arrow)"/>
<text x="591.0" y="237.0" text-anchor="middle" font-size="14" fill="#475569">调用</text>
<path d="M1000 190.0 L1000 198.0 L730 198.0 L730 206.0" fill="none" stroke="#475569" stroke-width="2" marker-end="url(#arrow)"/>
<text x="865.0" y="189.0" text-anchor="middle" font-size="14" fill="#475569">实现</text>
<path d="M1000 310.0 L1000 302.0 L730 302.0 L730 294.0" fill="none" stroke="#475569" stroke-width="2" marker-end="url(#arrow)"/>
<text x="865.0" y="293.0" text-anchor="middle" font-size="14" fill="#475569">实现</text>
<rect x="40.0" y="215.0" width="220" height="70" rx="15" fill="#eff6ff" stroke="#3b82f6" stroke-width="2"/>
<text x="150" y="256" text-anchor="middle" font-size="17" font-weight="650" fill="#1e293b">Client</text>
<rect x="340.0" y="215.0" width="220" height="70" rx="15" fill="#eff6ff" stroke="#3b82f6" stroke-width="2"/>
<text x="450" y="256" text-anchor="middle" font-size="17" font-weight="650" fill="#1e293b">Context</text>
<rect x="620.0" y="210.0" width="220" height="80" rx="15" fill="#eff6ff" stroke="#3b82f6" stroke-width="2"/>
<text x="730" y="243" text-anchor="middle" font-size="17" font-weight="650" fill="#1e293b">Strategy</text>
<text x="730" y="269" text-anchor="middle" font-size="17" font-weight="650" fill="#1e293b">协议</text>
<rect x="890.0" y="125.0" width="220" height="70" rx="15" fill="#eff6ff" stroke="#3b82f6" stroke-width="2"/>
<text x="1000" y="166" text-anchor="middle" font-size="17" font-weight="650" fill="#1e293b">ConcreteStrategyA</text>
<rect x="890.0" y="305.0" width="220" height="70" rx="15" fill="#eff6ff" stroke="#3b82f6" stroke-width="2"/>
<text x="1000" y="346" text-anchor="middle" font-size="17" font-weight="650" fill="#1e293b">ConcreteStrategyB</text>
</svg>
