<svg xmlns="http://www.w3.org/2000/svg" role="img" aria-label="文章示意图：09-身份认证：Cookie、Session与JWT" viewBox="0 0 950 400" width="950" height="400">
  <style>.node{fill:#fff;stroke:#9aabc0;stroke-width:1.2}.edge{fill:none;stroke:#52657d;stroke-width:2.1;stroke-linecap:round;stroke-linejoin:round}.label{font:14px ui-monospace,"Cascadia Mono","Microsoft YaHei",monospace;fill:#203149}</style>
  <rect x="0.5" y="0.5" width="949" height="399" rx="12" fill="#f6f8fb" stroke="#d5deea"/>
<path class="edge" d="M 55.0 65.0 V 365.0"/>
<path class="edge" d="M 375.0 65.0 V 365.0"/>
<path class="edge" d="M 60 95.0 H 356"/>
<path class="edge" d="M 365,92.9 L 369.2,95 L 365,97.1 Z"/>
<path class="edge" d="M 370 185.0 H 74"/>
<path class="edge" d="M 70,182.9 L 65.8,185 L 70,187.1 Z"/>
<path class="edge" d="M 60 245.0 H 356"/>
<path class="edge" d="M 365,242.9 L 369.2,245 L 365,247.1 Z"/>
<path class="edge" d="M 370 305.0 H 74"/>
<path class="edge" d="M 70,302.9 L 65.8,305 L 70,307.1 Z"/>
<path class="edge" d="M 60 365.0 H 356"/>
<path class="edge" d="M 365,362.9 L 369.2,365 L 365,367.1 Z"/>
<rect class="node" x="16" y="23" width="68" height="24" rx="5"/>
<text class="label" x="20" y="45" textLength="60" lengthAdjust="spacingAndGlyphs">客户端</text>
<rect class="node" x="286" y="23" width="68" height="24" rx="5"/>
<text class="label" x="290" y="45" textLength="60" lengthAdjust="spacingAndGlyphs">服务端</text>
<rect class="node" x="76" y="53" width="48" height="24" rx="5"/>
<text class="label" x="80" y="75" textLength="40" lengthAdjust="spacingAndGlyphs">POST</text>
<rect class="node" x="126" y="53" width="228" height="24" rx="5"/>
<text class="label" x="130" y="75" textLength="220" lengthAdjust="spacingAndGlyphs">/login（用户名、密码）</text>
<rect class="node" x="346" y="83" width="18" height="24" rx="5"/>
<text class="label" x="350" y="105" textLength="10" lengthAdjust="spacingAndGlyphs">-</text>
<rect class="node" x="386" y="83" width="28" height="24" rx="5"/>
<text class="label" x="390" y="105" textLength="20" lengthAdjust="spacingAndGlyphs">1.</text>
<rect class="node" x="416" y="83" width="88" height="24" rx="5"/>
<text class="label" x="420" y="105" textLength="80" lengthAdjust="spacingAndGlyphs">校验口令</text>
<rect class="node" x="386" y="113" width="28" height="24" rx="5"/>
<text class="label" x="390" y="135" textLength="20" lengthAdjust="spacingAndGlyphs">2.</text>
<rect class="node" x="416" y="113" width="88" height="24" rx="5"/>
<text class="label" x="420" y="135" textLength="80" lengthAdjust="spacingAndGlyphs">生成随机</text>
<rect class="node" x="506" y="113" width="78" height="24" rx="5"/>
<text class="label" x="510" y="135" textLength="70" lengthAdjust="spacingAndGlyphs">Session</text>
<rect class="node" x="586" y="113" width="168" height="24" rx="5"/>
<text class="label" x="590" y="135" textLength="160" lengthAdjust="spacingAndGlyphs">ID，写入会话存储</text>
<rect class="node" x="76" y="143" width="38" height="24" rx="5"/>
<text class="label" x="80" y="165" textLength="30" lengthAdjust="spacingAndGlyphs">200</text>
<rect class="node" x="116" y="143" width="28" height="24" rx="5"/>
<text class="label" x="120" y="165" textLength="20" lengthAdjust="spacingAndGlyphs">OK</text>
<rect class="node" x="146" y="143" width="18" height="24" rx="5"/>
<text class="label" x="150" y="165" textLength="10" lengthAdjust="spacingAndGlyphs">+</text>
<rect class="node" x="166" y="143" width="118" height="24" rx="5"/>
<text class="label" x="170" y="165" textLength="110" lengthAdjust="spacingAndGlyphs">Set-Cookie:</text>
<rect class="node" x="286" y="143" width="68" height="24" rx="5"/>
<text class="label" x="290" y="165" textLength="60" lengthAdjust="spacingAndGlyphs">sid=ID</text>
<rect class="node" x="356" y="173" width="18" height="24" rx="5"/>
<text class="label" x="360" y="195" textLength="10" lengthAdjust="spacingAndGlyphs">-</text>
<rect class="node" x="76" y="203" width="38" height="24" rx="5"/>
<text class="label" x="80" y="225" textLength="30" lengthAdjust="spacingAndGlyphs">GET</text>
<rect class="node" x="116" y="203" width="168" height="24" rx="5"/>
<text class="label" x="120" y="225" textLength="160" lengthAdjust="spacingAndGlyphs">/orders（Cookie:</text>
<rect class="node" x="286" y="203" width="88" height="24" rx="5"/>
<text class="label" x="290" y="225" textLength="80" lengthAdjust="spacingAndGlyphs">sid=ID）</text>
<rect class="node" x="346" y="233" width="18" height="24" rx="5"/>
<text class="label" x="350" y="255" textLength="10" lengthAdjust="spacingAndGlyphs">-</text>
<rect class="node" x="386" y="233" width="28" height="24" rx="5"/>
<text class="label" x="390" y="255" textLength="20" lengthAdjust="spacingAndGlyphs">3.</text>
<rect class="node" x="416" y="233" width="28" height="24" rx="5"/>
<text class="label" x="420" y="255" textLength="20" lengthAdjust="spacingAndGlyphs">用</text>
<rect class="node" x="446" y="233" width="28" height="24" rx="5"/>
<text class="label" x="450" y="255" textLength="20" lengthAdjust="spacingAndGlyphs">ID</text>
<rect class="node" x="476" y="233" width="208" height="24" rx="5"/>
<text class="label" x="480" y="255" textLength="200" lengthAdjust="spacingAndGlyphs">查会话存储，得到用户</text>
<rect class="node" x="136" y="263" width="38" height="24" rx="5"/>
<text class="label" x="140" y="285" textLength="30" lengthAdjust="spacingAndGlyphs">200</text>
<rect class="node" x="176" y="263" width="28" height="24" rx="5"/>
<text class="label" x="180" y="285" textLength="20" lengthAdjust="spacingAndGlyphs">OK</text>
<rect class="node" x="206" y="263" width="18" height="24" rx="5"/>
<text class="label" x="210" y="285" textLength="10" lengthAdjust="spacingAndGlyphs">+</text>
<rect class="node" x="226" y="263" width="48" height="24" rx="5"/>
<text class="label" x="230" y="285" textLength="40" lengthAdjust="spacingAndGlyphs">数据</text>
<rect class="node" x="356" y="293" width="18" height="24" rx="5"/>
<text class="label" x="360" y="315" textLength="10" lengthAdjust="spacingAndGlyphs">-</text>
<rect class="node" x="76" y="323" width="48" height="24" rx="5"/>
<text class="label" x="80" y="345" textLength="40" lengthAdjust="spacingAndGlyphs">POST</text>
<rect class="node" x="126" y="323" width="78" height="24" rx="5"/>
<text class="label" x="130" y="345" textLength="70" lengthAdjust="spacingAndGlyphs">/logout</text>
<rect class="node" x="346" y="353" width="18" height="24" rx="5"/>
<text class="label" x="350" y="375" textLength="10" lengthAdjust="spacingAndGlyphs">-</text>
<rect class="node" x="386" y="353" width="28" height="24" rx="5"/>
<text class="label" x="390" y="375" textLength="20" lengthAdjust="spacingAndGlyphs">4.</text>
<rect class="node" x="416" y="353" width="208" height="24" rx="5"/>
<text class="label" x="420" y="375" textLength="200" lengthAdjust="spacingAndGlyphs">删除会话记录（客户端</text>
<rect class="node" x="626" y="353" width="68" height="24" rx="5"/>
<text class="label" x="630" y="375" textLength="60" lengthAdjust="spacingAndGlyphs">Cookie</text>
<rect class="node" x="696" y="353" width="228" height="24" rx="5"/>
<text class="label" x="700" y="375" textLength="220" lengthAdjust="spacingAndGlyphs">是否清除都不影响判定）</text>
</svg>