<svg xmlns="http://www.w3.org/2000/svg" role="img" aria-label="文章示意图：04-传输层：UDP、TCP与QUIC" viewBox="0 0 810 220" width="810" height="220">
  <style>.node{fill:#fff;stroke:#9aabc0;stroke-width:1.2}.edge{fill:none;stroke:#52657d;stroke-width:2.1;stroke-linecap:round;stroke-linejoin:round}.label{font:14px ui-monospace,"Cascadia Mono","Microsoft YaHei",monospace;fill:#203149}</style>
  <rect x="0.5" y="0.5" width="809" height="219" rx="12" fill="#f6f8fb" stroke="#d5deea"/>
<path class="edge" d="M 20 65.0 H 360"/>
<path class="edge" d="M 370 65.0 H 510"/>
<path class="edge" d="M 520 65.0 H 700"/>
<path class="edge" d="M 710 65.0 H 766"/>
<path class="edge" d="M 770.8,60.8 L 779.2,65.0 L 770.8,69.2 Z"/>
<path class="edge" d="M 410 125.0 H 374"/>
<path class="edge" d="M 374.2,120.8 L 365.8,125.0 L 374.2,129.2 Z"/>
<path class="edge" d="M 570 125.0 H 606"/>
<path class="edge" d="M 610.8,120.8 L 619.2,125.0 L 610.8,129.2 Z"/>
<path class="edge" d="M 430 155.0 H 374"/>
<path class="edge" d="M 374.2,150.8 L 365.8,155.0 L 374.2,159.2 Z"/>
<path class="edge" d="M 530 155.0 H 596"/>
<path class="edge" d="M 600.8,150.8 L 609.2,155.0 L 600.8,159.2 Z"/>
<rect class="node" x="16" y="23" width="88" height="24" rx="5"/>
<text class="label" x="20" y="45" textLength="80" lengthAdjust="spacingAndGlyphs">序号空间</text>
<rect class="node" x="346" y="23" width="78" height="24" rx="5"/>
<text class="label" x="350" y="45" textLength="70" lengthAdjust="spacingAndGlyphs">snd.una</text>
<rect class="node" x="496" y="23" width="78" height="24" rx="5"/>
<text class="label" x="500" y="45" textLength="70" lengthAdjust="spacingAndGlyphs">snd.nxt</text>
<rect class="node" x="686" y="23" width="48" height="24" rx="5"/>
<text class="label" x="690" y="45" textLength="40" lengthAdjust="spacingAndGlyphs">右沿</text>
<rect class="node" x="346" y="53" width="28" height="24" rx="5"/>
<text class="label" x="350" y="75" textLength="20" lengthAdjust="spacingAndGlyphs">-|</text>
<rect class="node" x="496" y="53" width="28" height="24" rx="5"/>
<text class="label" x="500" y="75" textLength="20" lengthAdjust="spacingAndGlyphs">-|</text>
<rect class="node" x="686" y="53" width="28" height="24" rx="5"/>
<text class="label" x="690" y="75" textLength="20" lengthAdjust="spacingAndGlyphs">-|</text>
<rect class="node" x="756" y="53" width="18" height="24" rx="5"/>
<text class="label" x="760" y="75" textLength="10" lengthAdjust="spacingAndGlyphs">-</text>
<rect class="node" x="316" y="83" width="68" height="24" rx="5"/>
<text class="label" x="320" y="105" textLength="60" lengthAdjust="spacingAndGlyphs">已确认</text>
<rect class="node" x="486" y="83" width="108" height="24" rx="5"/>
<text class="label" x="490" y="105" textLength="100" lengthAdjust="spacingAndGlyphs">已发未确认</text>
<rect class="node" x="676" y="83" width="108" height="24" rx="5"/>
<text class="label" x="680" y="105" textLength="100" lengthAdjust="spacingAndGlyphs">还不允许发</text>
<rect class="node" x="396" y="113" width="18" height="24" rx="5"/>
<text class="label" x="400" y="135" textLength="10" lengthAdjust="spacingAndGlyphs">-</text>
<rect class="node" x="416" y="113" width="48" height="24" rx="5"/>
<text class="label" x="420" y="135" textLength="40" lengthAdjust="spacingAndGlyphs">在途</text>
<rect class="node" x="466" y="113" width="98" height="24" rx="5"/>
<text class="label" x="470" y="135" textLength="90" lengthAdjust="spacingAndGlyphs">in-flight</text>
<rect class="node" x="596" y="113" width="18" height="24" rx="5"/>
<text class="label" x="600" y="135" textLength="10" lengthAdjust="spacingAndGlyphs">-</text>
<rect class="node" x="416" y="143" width="18" height="24" rx="5"/>
<text class="label" x="420" y="165" textLength="10" lengthAdjust="spacingAndGlyphs">-</text>
<rect class="node" x="436" y="143" width="88" height="24" rx="5"/>
<text class="label" x="440" y="165" textLength="80" lengthAdjust="spacingAndGlyphs">可用窗口</text>
<rect class="node" x="586" y="143" width="18" height="24" rx="5"/>
<text class="label" x="590" y="165" textLength="10" lengthAdjust="spacingAndGlyphs">-</text>
<rect class="node" x="276" y="173" width="48" height="24" rx="5"/>
<text class="label" x="280" y="195" textLength="40" lengthAdjust="spacingAndGlyphs">右沿</text>
<rect class="node" x="326" y="173" width="18" height="24" rx="5"/>
<text class="label" x="330" y="195" textLength="10" lengthAdjust="spacingAndGlyphs">=</text>
<rect class="node" x="346" y="173" width="78" height="24" rx="5"/>
<text class="label" x="350" y="195" textLength="70" lengthAdjust="spacingAndGlyphs">snd.una</text>
<rect class="node" x="426" y="173" width="18" height="24" rx="5"/>
<text class="label" x="430" y="195" textLength="10" lengthAdjust="spacingAndGlyphs">+</text>
<rect class="node" x="446" y="173" width="98" height="24" rx="5"/>
<text class="label" x="450" y="195" textLength="90" lengthAdjust="spacingAndGlyphs">min(rwnd,</text>
<rect class="node" x="546" y="173" width="58" height="24" rx="5"/>
<text class="label" x="550" y="195" textLength="50" lengthAdjust="spacingAndGlyphs">cwnd)</text>
</svg>