<svg xmlns="http://www.w3.org/2000/svg" role="img" aria-label="客户端请求经过代理和 CDN，响应沿原路返回" viewBox="0 0 1240 250" width="1240" height="250">
<style>.node{fill:#fff;stroke:#8294aa;stroke-width:1.5}.edge{fill:none;stroke:#52657d;stroke-width:2.5;stroke-linecap:round;stroke-linejoin:round;marker-end:url(#arrow)}.lane{font:600 15px system-ui,"Microsoft YaHei",sans-serif;fill:#203149}.label{font:15px system-ui,"Microsoft YaHei",sans-serif;fill:#203149}.small{font:13px system-ui,"Microsoft YaHei",sans-serif;fill:#465a72}</style>
<defs><marker id="arrow" markerWidth="4.5" markerHeight="4.5" refX="7" refY="4.5" orient="auto" markerUnits="strokeWidth"><path d="M0 0 L9 4.5 L0 9 Z" fill="#52657d"/></marker></defs>
<rect x="0.5" y="0.5" width="1239" height="249" rx="14" fill="#f6f8fb" stroke="#d5deea"/>
<rect class="node" x="20" y="40" width="168" height="66" rx="10"/><text class="label" x="104.0" y="78.0" text-anchor="middle"><tspan x="104.0" y="78.0">客户端</tspan></text>
<path class="edge" d="M 188 73.0 H 213" marker-end="url(#arrow)"/>
<rect class="node" x="222" y="40" width="168" height="66" rx="10"/><text class="label" x="306.0" y="78.0" text-anchor="middle"><tspan x="306.0" y="78.0">正向代理</tspan></text>
<path class="edge" d="M 390 73.0 H 415" marker-end="url(#arrow)"/>
<rect class="node" x="424" y="40" width="168" height="66" rx="10"/><text class="label" x="508.0" y="78.0" text-anchor="middle"><tspan x="508.0" y="68.0">CDN /</tspan><tspan x="508.0" y="88.0">边缘节点</tspan></text>
<path class="edge" d="M 592 73.0 H 617" marker-end="url(#arrow)"/>
<rect class="node" x="626" y="40" width="168" height="66" rx="10"/><text class="label" x="710.0" y="78.0" text-anchor="middle"><tspan x="710.0" y="68.0">反向代理 /</tspan><tspan x="710.0" y="88.0">负载均衡</tspan></text>
<path class="edge" d="M 794 73.0 H 819" marker-end="url(#arrow)"/>
<rect class="node" x="828" y="40" width="168" height="66" rx="10"/><text class="label" x="912.0" y="78.0" text-anchor="middle"><tspan x="912.0" y="78.0">应用服务</tspan></text>
<path class="edge" d="M 996 73.0 H 1021" marker-end="url(#arrow)"/>
<rect class="node" x="1030" y="40" width="168" height="66" rx="10"/><text class="label" x="1114.0" y="78.0" text-anchor="middle"><tspan x="1114.0" y="68.0">缓存 / 数据库</tspan><tspan x="1114.0" y="88.0">（黑盒）</tspan></text>
<path class="edge" d="M 1114.0 106 V 177 H 104.0 V 109" marker-end="url(#arrow)"/>
<text class="small" x="620.0" y="212" text-anchor="middle"><tspan x="620.0" y="212.0">响应沿原路返回</tspan></text>
</svg>
