<svg xmlns="http://www.w3.org/2000/svg" width="1180" height="650" viewBox="0 0 1180 650" role="img">
<defs><marker id="arrow" viewBox="0 0 10 10" refX="8" refY="5" markerWidth="3.5" markerHeight="3.5" orient="auto"><path d="M0 0L10 5L0 10z" fill="#475569"/></marker></defs>
<rect width="100%" height="100%" rx="22" fill="#fff" stroke="#cbd5e1" stroke-width="2"/>
<text x="590" y="48" text-anchor="middle" font-size="27" font-weight="700" fill="#0f172a">空对象：NullOperation 遵守同一协议</text>
<path d="M274.0 250 L388.0 250" fill="none" stroke="#475569" stroke-width="2" marker-end="url(#arrow)"/>
<text x="331.0" y="237.0" text-anchor="middle" font-size="14" fill="#475569">调用</text>
<path d="M840 195.0 L840 200.5 L490 200.5 L490 206.0" fill="none" stroke="#475569" stroke-width="2" marker-end="url(#arrow)"/>
<text x="665.0" y="191.5" text-anchor="middle" font-size="14" fill="#475569">实现</text>
<path d="M840 305.0 L840 299.5 L490 299.5 L490 294.0" fill="none" stroke="#475569" stroke-width="2" marker-end="url(#arrow)"/>
<text x="665.0" y="290.5" text-anchor="middle" font-size="14" fill="#475569">实现</text>
<rect x="60.0" y="215.0" width="220" height="70" rx="15" fill="#eff6ff" stroke="#3b82f6" stroke-width="2"/>
<text x="170" y="256" text-anchor="middle" font-size="17" font-weight="650" fill="#1e293b">Client</text>
<rect x="380.0" y="210.0" width="220" height="80" rx="15" fill="#eff6ff" stroke="#3b82f6" stroke-width="2"/>
<text x="490" y="243" text-anchor="middle" font-size="17" font-weight="650" fill="#1e293b">AbstractOperation</text>
<text x="490" y="269" text-anchor="middle" font-size="17" font-weight="650" fill="#1e293b">协议</text>
<rect x="730.0" y="120.0" width="220" height="80" rx="15" fill="#eff6ff" stroke="#3b82f6" stroke-width="2"/>
<text x="840" y="153" text-anchor="middle" font-size="17" font-weight="650" fill="#1e293b">RealOperation</text>
<text x="840" y="179" text-anchor="middle" font-size="17" font-weight="650" fill="#1e293b">执行真实操作</text>
<rect x="730.0" y="300.0" width="220" height="80" rx="15" fill="#eff6ff" stroke="#3b82f6" stroke-width="2"/>
<text x="840" y="333" text-anchor="middle" font-size="17" font-weight="650" fill="#1e293b">NullOperation</text>
<text x="840" y="359" text-anchor="middle" font-size="17" font-weight="650" fill="#1e293b">安全空操作</text>
</svg>
